#!OML:ASF E:\Mandelcareful walks\Project 1\Capture day 1\Session 1\Subject1.ASF
:FULLY-SPECIFIED
:DEGREES
68
root -8.47135 1.51946 1.41576 135.446 83.788 31.2296
lowerback -20.7352 0.549848 -1.80621
upperback -1.77699 1.50318 -1.96411
thorax 9.69341 0.754369 -0.679709
lowerneck -15.5615 17.3975 11.7602
upperneck 19.6435 25.5689 -17.807
head 13.1838 10.5369 -3.71043
rclavicle -2.94201e-014 -1.17904e-013
rhumerus 17.2935 -43.2219 -13.2177
rradius 124.257
rwrist -34.5382
rhand -18.3046 -35.7027
rfingers 7.12502
rthumb 7.97639 -65.5322
lclavicle -2.94201e-014 -1.17904e-013
lhumerus 38.1316 37.1536 31.4381
lradius 114.05
lwrist 31.2981
lhand -21.5357 -14.5378
lfingers 7.12502
lthumb 4.85705 15.3866
rfemur -18.2775 -11.0649 13.2942
rtibia 16.9134
rfoot -51.2039 -40.8785
rtoes 39.6284
lfemur -28.2068 27.2987 -18.0698
ltibia 28.5187
lfoot -17.7238 34.1988
ltoes 21.3252
69
root -8.47358 1.51866 1.41524 134.573 83.7561 30.4026
lowerback -20.6862 0.541667 -1.90017
upperback -1.75593 1.51318 -1.97433
thorax 9.68796 0.755014 -0.635012
lowerneck -15.6148 17.3996 11.6669
upperneck 19.6388 25.5519 -17.6858
head 13.1519 10.532 -3.65578
rclavicle -4.13472e-014 -7.42958e-014
rhumerus 17.3312 -43.2277 -13.247
rradius 124.246
rwrist -34.5533
rhand -18.2893 -35.7466
rfingers 7.12502
rthumb 7.99113 -65.5755
lclavicle -4.13472e-014 -7.42958e-014
lhumerus 38.15 37.2074 31.4717
lradius 114.036
lwrist 31.3435
lhand -21.5379 -14.6123
lfingers 7.12502
lthumb 4.85497 15.3121
rfemur -18.2385 -11.0511 13.1969
rtibia 16.9159
rfoot -51.052 -40.9406
rtoes 39.4991
lfemur -28.1244 27.3228 -18.1314
ltibia 28.5017
lfoot -17.9215 34.1672
ltoes 20.9788
70
root -8.47401 1.51723 1.41252 134.475 83.7396 30.3384
lowerback -20.6553 0.513655 -1.98223
upperback -1.74492 1.48774 -1.92209
thorax 9.67963 0.737702 -0.53859
lowerneck -15.6765 17.4188 11.6065
upperneck 19.6854 25.5752 -17.606
head 13.1625 10.5385 -3.60964
rclavicle -1.1291e-013 -9.5193e-014
rhumerus 17.356 -43.2474 -13.197
rradius 124.226
rwrist -34.5856
rhand -18.2255 -35.7128
rfingers 7.12502
rthumb 8.05274 -65.5394
lclavicle -1.1291e-013 -9.5193e-014
lhumerus 38.0923 37.1827 31.5583
lradius 114.103
lwrist 31.374
lhand -21.4758 -14.5888
lfingers 7.12502
lthumb 4.91498 15.3342
rfemur -18.1706 -11.1891 13.1834
rtibia 16.8575
rfoot -51.1405 -40.7607
rtoes 39.5202
lfemur -28.0957 27.3366 -18.1446
ltibia 28.5404
lfoot -18.2672 34.1047
ltoes 21.321
71
root -8.4749 1.5169 1.41093 134.579 83.7475 30.4428
lowerback -20.6472 0.517105 -1.98216
upperback -1.75168 1.49077 -1.91061
thorax 9.66731 0.739075 -0.525257
lowerneck -15.6694 17.4214 11.6137
upperneck 19.6944 25.568 -17.5689
head 13.1573 10.5392 -3.59986
rclavicle 3.4191e-014 4.4975e-014
rhumerus 17.2896 -43.2585 -13.1241
rradius 124.213
rwrist -34.5698
rhand -18.2592 -35.6286
rfingers 7.12502
rthumb 8.02019 -65.4564
lclavicle 3.4191e-014 4.4975e-014
lhumerus 38.1059 37.1148 31.6119
lradius 114.142
lwrist 31.4271
lhand -21.4277 -14.5322
lfingers 7.12502
lthumb 4.9614 15.3897
rfemur -18.0606 -11.2441 13.2076
rtibia 16.6328
rfoot -50.9743 -40.9656
rtoes 39.216
lfemur -28.1641 27.3077 -18.1308
ltibia 28.6908
lfoot -18.472 34.1279
ltoes 20.2872
72
root -8.47739 1.51841 1.41142 137.53 84.1396 33.3753
lowerback -20.6666 0.642855 -1.43084
upperback -1.77089 1.52059 -1.82661
thorax 9.66758 0.773937 -0.739047
lowerneck -15.6777 17.381 11.5578
upperneck 19.7126 25.4857 -17.4314
head 13.1175 10.5119 -3.56463
rclavicle -1.11319e-014 -2.76311e-014
rhumerus 17.1685 -43.2636 -13.0403
rradius 124.199
rwrist -34.5684
rhand -18.3339 -35.6262
rfingers 7.12502
rthumb 7.94807 -65.4567
lclavicle -1.11319e-014 -2.76311e-014
lhumerus 38.2509 37.0603 31.6602
lradius 114.108
lwrist 31.4696
lhand -21.5107 -14.5412
lfingers 7.12502
lthumb 4.88128 15.3826
rfemur -17.9938 -11.0427 13.7682
rtibia 16.4112
rfoot -50.9286 -41.2237
rtoes 39.1829
lfemur -28.2726 27.2899 -17.5677
ltibia 28.8337
lfoot -18.5963 34.1869
ltoes 20.3905
73
root -8.47903 1.52102 1.4126 142.041 84.6485 37.9458
lowerback -20.6141 0.794396 -0.72001
upperback -1.77109 1.53846 -1.68109
thorax 9.65201 0.807433 -0.980992
lowerneck -15.6577 17.3389 11.5546
upperneck 19.7134 25.4092 -17.3678
head 13.0883 10.4864 -3.56272
rclavicle 1.02573e-013 8.1626e-014
rhumerus 17.0811 -43.2858 -12.9876
rradius 124.181
rwrist -34.6129
rhand -18.3254 -35.6084
rfingers 7.12502
rthumb 7.95629 -65.4387
lclavicle 1.02573e-013 8.1626e-014
lhumerus 38.3749 37.0388 31.6904
lradius 114.08
lwrist 31.5176
lhand -21.5356 -14.6186
lfingers 7.12502
lthumb 4.85721 15.3058
rfemur -17.9279 -10.7787 14.504
rtibia 16.3518
rfoot -51.0783 -41.2905
rtoes 39.3108
lfemur -28.2694 27.446 -16.8026
ltibia 28.8789
lfoot -18.5599 34.1412
ltoes 21.4274
74
root -8.47613 1.52222 1.41129 139.25 84.4084 35.2917
lowerback -20.4836 0.747625 -1.08035
upperback -1.70649 1.56362 -1.75921
thorax 9.64568 0.805267 -0.855245
lowerneck -15.6744 17.3174 11.5796
upperneck 19.6846 25.3826 -17.4251
head 13.0902 10.4722 -3.59127
rclavicle -6.99722e-014 -2.46493e-014
rhumerus 17.079 -43.3044 -13.009
rradius 124.212
rwrist -34.5842
rhand -18.2739 -35.5786
rfingers 7.12502
rthumb 8.00603 -65.407
lclavicle -6.99722e-014 -2.46493e-014
lhumerus 38.4123 37.0691 31.7173
lradius 114.081
lwrist 31.6149
lhand -21.4993 -14.6896
lfingers 7.12502
lthumb 4.89227 15.2339
rfemur -17.7711 -10.909 14.0889
rtibia 16.344
rfoot -51.003 -41.227
rtoes 39.4079
lfemur -28.1069 27.4894 -17.1467
ltibia 28.8749
lfoot -18.5038 34.1274
ltoes 21.2118
75
root -8.47441 1.52312 1.40918 134.715 83.8879 30.7588
lowerback -20.4659 0.628279 -1.76671
upperback -1.67101 1.58234 -1.93183
thorax 9.66337 0.790036 -0.647552
lowerneck -15.7179 17.3361 11.5886
upperneck 19.6563 25.4332 -17.5416
head 13.1197 10.4826 -3.61709
rclavicle -5.32743e-014 -4.57205e-014
rhumerus 17.146 -43.2935 -13.0828
rradius 124.243
rwrist -34.5298
rhand -18.3065 -35.5621
rfingers 7.12502
rthumb 7.97457 -65.3916
lclavicle -5.32743e-014 -4.57205e-014
lhumerus 38.3788 37.1303 31.7165
lradius 114.088
lwrist 31.6703
lhand -21.5117 -14.7219
lfingers 7.12502
lthumb 4.8803 15.2019
rfemur -17.8209 -11.168 13.3183
rtibia 16.4473
rfoot -51.0318 -40.963
rtoes 39.3929
lfemur -28.0333 27.3007 -17.8962
ltibia 28.7931
lfoot -18.6002 34.265
ltoes 21.358
76
root -8.47542 1.5255 1.40961 134.171 83.8435 30.1292
lowerback -20.5217 0.602558 -1.8175
upperback -1.69048 1.56615 -1.96573
thorax 9.67214 0.781646 -0.659627
lowerneck -15.6586 17.39 11.7207
upperneck 19.5754 25.5385 -17.7876
head 13.1604 10.522 -3.6978
rclavicle -1.35174e-014 -2.35063e-014
rhumerus 17.2467 -43.3105 -13.1549
rradius 124.198
rwrist -34.5829
rhand -18.4465 -35.495
rfingers 7.12502
rthumb 7.83943 -65.3297
lclavicle -1.35174e-014 -2.35063e-014
lhumerus 38.316 37.1904 31.6166
lradius 114.082
lwrist 31.7078
lhand -21.516 -14.718
lfingers 7.12502
lthumb 4.87612 15.2059
rfemur -18.0601 -11.042 13.2279
rtibia 16.7277
rfoot -51.4766 -40.5952
rtoes 39.5327
lfemur -28.0481 27.2052 -18.0045
ltibia 28.6153
lfoot -18.7415 34.3691
ltoes 22.1037
